<svg width="16" height="16" viewBox="0 0 16 16" fill="none" xmlns="http://www.w3.org/2000/svg">
<path d="M1.6787 7.9751L4.0481 4.23139H6.18146L4.17051 7.45216L3.83827 7.9751L6.22514 11.7437H4.06559L1.6787 7.9751ZM5.7093 5.95798L6.79346 4.23139H6.82845L10.2558 9.99222L9.1541 11.7437L5.7093 5.95798ZM11.7246 8.60598L12.1268 7.9751L9.74866 4.23139H11.917L14.2864 7.9751L11.9082 11.7437H9.76616L11.7246 8.60598ZM8.83064 3.73334L9.30274 4.48042L11.5148 7.9751L11.3049 8.29883L11.2787 8.34032L10.553 9.48587L7.27431 3.98237L7.12573 3.73334H3.75084L3.6022 3.97406L1.22406 7.71776L1.06668 7.9751L1.22406 8.23243L3.61095 12.001L3.75958 12.2418H4.05685H6.22514H7.14317L6.67106 11.4947L4.45029 7.9751L5.41202 6.45606L8.69949 11.9844L8.84813 12.2334H9.1541H11.9082H12.2055L12.3541 11.9928L14.741 8.22411L14.8984 7.96678L14.741 7.7095L12.3629 3.97406L12.2142 3.73334H8.83064Z" fill="black"/>
</svg>
