<svg version="1.1" xmlns="http://www.w3.org/2000/svg" xmlns:xlink="http://www.w3.org/1999/xlink"
	 viewBox="0 0 158.6 102.8">
	<path fill="#fa6d01" class="outline" d="M7,51.1L34.1,6h24.4l-23,38.8l0,0l-3.8,6.3L59,96.5H34.3L7,51.1z M53.1,26.8L65.5,6h0.4l39.2,69.4L92.5,96.5
		L53.1,26.8z M121.9,58.7l4.6-7.6L99.3,6h24.8l27.1,45.1L124,96.5H99.5L121.9,58.7z M88.8,0l5.4,9l25.3,42.1l-2.4,3.9l0,0l-0.3,0.5
		l-8.3,13.8L71,3l-1.7-3H30.7L29,2.9L1.8,48L0,51.1l1.8,3.1l27.3,45.4l1.7,2.9h3.4H59h10.5l-5.4-9L38.7,51.1l11-18.3l37.6,66.6
		l1.7,3h3.5H124h3.4l1.7-2.9l27.3-45.4l1.8-3.1l-1.8-3.1l-27.2-45L127.5,0H88.8z"/>
</svg>
