<svg width="30" height="30" viewBox="0 0 30 30" fill="none" xmlns="http://www.w3.org/2000/svg">
<path d="M3.14754 14.9533L7.59016 7.93385H11.5902L7.81967 13.9728L7.19672 14.9533L11.6721 22.0195H7.62295L3.14754 14.9533ZM10.7049 11.1712L12.7377 7.93385H12.8033L19.2295 18.7354L17.1639 22.0195L10.7049 11.1712ZM21.9836 16.1362L22.7377 14.9533L18.2787 7.93385H22.3443L26.7869 14.9533L22.3279 22.0195H18.3115L21.9836 16.1362ZM16.5574 7L17.4426 8.40078L21.5902 14.9533L21.1967 15.5603L21.1475 15.6381L19.7869 17.786L13.6393 7.46693L13.3607 7H7.03279L6.7541 7.45136L2.29508 14.4708L2 14.9533L2.29508 15.4358L6.77049 22.5019L7.04918 22.9533H7.60656H11.6721H13.3934L12.5082 21.5525L8.34426 14.9533L10.1475 12.1051L16.3115 22.4708L16.5902 22.9377H17.1639H22.3279H22.8852L23.1639 22.4864L27.6393 15.4202L27.9344 14.9377L27.6393 14.4553L23.1803 7.45136L22.9016 7H16.5574Z" fill="#FA6D01"/>
</svg>
